<mxfile host="app.diagrams.net" modified="2024-01-26T17:22:35.610Z" agent="Mozilla/5.0 (Windows NT 10.0; Win64; x64) AppleWebKit/537.36 (KHTML, like Gecko) Chrome/120.0.0.0 Safari/537.36" etag="2UHuM0LkV4XUfhMV-q8D" version="23.0.2" type="github">
  <diagram name="Page-1" id="58cdce13-f638-feb5-8d6f-7d28b1aa9fa0">
    <mxGraphModel dx="2150" dy="530" grid="1" gridSize="10" guides="1" tooltips="1" connect="1" arrows="1" fold="1" page="1" pageScale="1" pageWidth="1100" pageHeight="850" background="none" math="0" shadow="0">
      <root>
        <mxCell id="0" />
        <mxCell id="1" parent="0" />
        <mxCell id="AWg_gz1br5wKKJKmFN-r-30" style="edgeStyle=orthogonalEdgeStyle;rounded=0;orthogonalLoop=1;jettySize=auto;html=1;exitX=1;exitY=0.5;exitDx=0;exitDy=0;curved=1;" parent="1" source="AWg_gz1br5wKKJKmFN-r-6" target="AWg_gz1br5wKKJKmFN-r-9" edge="1">
          <mxGeometry relative="1" as="geometry" />
        </mxCell>
        <mxCell id="AWg_gz1br5wKKJKmFN-r-34" value="&lt;div&gt;&lt;b&gt;&lt;font color=&quot;#FF0000&quot;&gt;1&lt;/font&gt;&lt;/b&gt;&lt;/div&gt;&lt;div&gt;ident&lt;/div&gt;" style="edgeLabel;html=1;align=center;verticalAlign=middle;resizable=0;points=[];" parent="AWg_gz1br5wKKJKmFN-r-30" vertex="1" connectable="0">
          <mxGeometry x="0.16" y="1" relative="1" as="geometry">
            <mxPoint x="-9" as="offset" />
          </mxGeometry>
        </mxCell>
        <mxCell id="AWg_gz1br5wKKJKmFN-r-33" style="edgeStyle=orthogonalEdgeStyle;rounded=0;orthogonalLoop=1;jettySize=auto;html=1;exitX=0.5;exitY=1;exitDx=0;exitDy=0;curved=1;" parent="1" source="AWg_gz1br5wKKJKmFN-r-6" target="AWg_gz1br5wKKJKmFN-r-10" edge="1">
          <mxGeometry relative="1" as="geometry" />
        </mxCell>
        <mxCell id="AWg_gz1br5wKKJKmFN-r-35" value="&lt;font color=&quot;#FF0000&quot;&gt;&lt;b&gt;9&lt;/b&gt;&lt;/font&gt;&lt;br&gt;&lt;div&gt;BARRE&lt;/div&gt;" style="edgeLabel;html=1;align=center;verticalAlign=middle;resizable=0;points=[];" parent="AWg_gz1br5wKKJKmFN-r-33" vertex="1" connectable="0">
          <mxGeometry x="0.0222" y="-4" relative="1" as="geometry">
            <mxPoint x="2" as="offset" />
          </mxGeometry>
        </mxCell>
        <mxCell id="AWg_gz1br5wKKJKmFN-r-6" value="0" style="ellipse;whiteSpace=wrap;html=1;aspect=fixed;" parent="1" vertex="1">
          <mxGeometry x="20" y="300" width="50" height="50" as="geometry" />
        </mxCell>
        <mxCell id="AWg_gz1br5wKKJKmFN-r-36" style="edgeStyle=orthogonalEdgeStyle;rounded=0;orthogonalLoop=1;jettySize=auto;html=1;exitX=1;exitY=0.5;exitDx=0;exitDy=0;curved=1;entryX=0;entryY=0.5;entryDx=0;entryDy=0;" parent="1" source="AWg_gz1br5wKKJKmFN-r-9" target="AWg_gz1br5wKKJKmFN-r-31" edge="1">
          <mxGeometry relative="1" as="geometry" />
        </mxCell>
        <mxCell id="AWg_gz1br5wKKJKmFN-r-37" value="&lt;div&gt;nbentier&lt;/div&gt;" style="edgeLabel;html=1;align=center;verticalAlign=middle;resizable=0;points=[];" parent="AWg_gz1br5wKKJKmFN-r-36" vertex="1" connectable="0">
          <mxGeometry x="0.2348" relative="1" as="geometry">
            <mxPoint x="-11" y="-2" as="offset" />
          </mxGeometry>
        </mxCell>
        <mxCell id="AWg_gz1br5wKKJKmFN-r-38" style="edgeStyle=orthogonalEdgeStyle;rounded=0;orthogonalLoop=1;jettySize=auto;html=1;exitX=1;exitY=0;exitDx=0;exitDy=0;curved=1;" parent="1" source="AWg_gz1br5wKKJKmFN-r-9" target="AWg_gz1br5wKKJKmFN-r-18" edge="1">
          <mxGeometry relative="1" as="geometry">
            <Array as="points">
              <mxPoint x="183" y="170" />
            </Array>
          </mxGeometry>
        </mxCell>
        <mxCell id="AWg_gz1br5wKKJKmFN-r-39" value="&lt;font color=&quot;#FF3333&quot;&gt;&lt;b&gt;5&lt;/b&gt;&lt;/font&gt;&lt;div&gt;FIN&lt;/div&gt;" style="edgeLabel;html=1;align=center;verticalAlign=middle;resizable=0;points=[];" parent="AWg_gz1br5wKKJKmFN-r-38" vertex="1" connectable="0">
          <mxGeometry x="0.148" y="1" relative="1" as="geometry">
            <mxPoint x="-23" y="31" as="offset" />
          </mxGeometry>
        </mxCell>
        <mxCell id="AWg_gz1br5wKKJKmFN-r-40" style="edgeStyle=orthogonalEdgeStyle;rounded=0;orthogonalLoop=1;jettySize=auto;html=1;exitX=1;exitY=1;exitDx=0;exitDy=0;curved=1;" parent="1" source="AWg_gz1br5wKKJKmFN-r-9" target="AWg_gz1br5wKKJKmFN-r-27" edge="1">
          <mxGeometry relative="1" as="geometry">
            <Array as="points">
              <mxPoint x="183" y="390" />
              <mxPoint x="525" y="390" />
            </Array>
          </mxGeometry>
        </mxCell>
        <mxCell id="AWg_gz1br5wKKJKmFN-r-41" value="&lt;div&gt;&lt;font color=&quot;#FF0000&quot;&gt;&lt;b&gt;3&lt;/b&gt;&lt;/font&gt;&lt;/div&gt;&lt;div&gt;DEBUT&lt;/div&gt;" style="edgeLabel;html=1;align=center;verticalAlign=middle;resizable=0;points=[];" parent="AWg_gz1br5wKKJKmFN-r-40" vertex="1" connectable="0">
          <mxGeometry x="0.5231" y="-1" relative="1" as="geometry">
            <mxPoint x="-120" y="-11" as="offset" />
          </mxGeometry>
        </mxCell>
        <mxCell id="AWg_gz1br5wKKJKmFN-r-9" value="1" style="ellipse;whiteSpace=wrap;html=1;aspect=fixed;" parent="1" vertex="1">
          <mxGeometry x="140" y="300" width="50" height="50" as="geometry" />
        </mxCell>
        <mxCell id="AWg_gz1br5wKKJKmFN-r-10" value="11" style="ellipse;whiteSpace=wrap;html=1;aspect=fixed;" parent="1" vertex="1">
          <mxGeometry x="20" y="470" width="50" height="50" as="geometry" />
        </mxCell>
        <mxCell id="qwO_LtmiHnMAjNAjJfmR-1" style="edgeStyle=none;curved=1;rounded=0;orthogonalLoop=1;jettySize=auto;html=1;entryX=0.5;entryY=0;entryDx=0;entryDy=0;fontSize=12;startSize=8;endSize=8;" parent="1" source="AWg_gz1br5wKKJKmFN-r-18" target="AWg_gz1br5wKKJKmFN-r-6" edge="1">
          <mxGeometry relative="1" as="geometry">
            <Array as="points">
              <mxPoint x="260" y="160" />
              <mxPoint x="40" y="170" />
            </Array>
          </mxGeometry>
        </mxCell>
        <mxCell id="AWg_gz1br5wKKJKmFN-r-18" value="4" style="ellipse;whiteSpace=wrap;html=1;aspect=fixed;" parent="1" vertex="1">
          <mxGeometry x="525" y="130" width="50" height="50" as="geometry" />
        </mxCell>
        <mxCell id="AWg_gz1br5wKKJKmFN-r-19" value="&lt;div&gt;9&lt;/div&gt;" style="ellipse;whiteSpace=wrap;html=1;aspect=fixed;" parent="1" vertex="1">
          <mxGeometry x="475" y="40" width="50" height="50" as="geometry" />
        </mxCell>
        <mxCell id="AWg_gz1br5wKKJKmFN-r-20" value="&lt;div&gt;8&lt;/div&gt;" style="ellipse;whiteSpace=wrap;html=1;aspect=fixed;" parent="1" vertex="1">
          <mxGeometry x="940" y="310" width="50" height="50" as="geometry" />
        </mxCell>
        <mxCell id="AWg_gz1br5wKKJKmFN-r-51" style="edgeStyle=orthogonalEdgeStyle;rounded=0;orthogonalLoop=1;jettySize=auto;html=1;exitX=1;exitY=0.5;exitDx=0;exitDy=0;curved=1;" parent="1" source="AWg_gz1br5wKKJKmFN-r-22" target="AWg_gz1br5wKKJKmFN-r-23" edge="1">
          <mxGeometry relative="1" as="geometry" />
        </mxCell>
        <mxCell id="AWg_gz1br5wKKJKmFN-r-52" value="&lt;div&gt;&lt;font color=&quot;#FF0000&quot;&gt;&lt;b&gt;6&lt;/b&gt;&lt;/font&gt;&lt;/div&gt;&lt;div&gt;ADULTE&lt;/div&gt;" style="edgeLabel;html=1;align=center;verticalAlign=middle;resizable=0;points=[];" parent="AWg_gz1br5wKKJKmFN-r-51" vertex="1" connectable="0">
          <mxGeometry x="0.152" y="-1" relative="1" as="geometry">
            <mxPoint x="-9" as="offset" />
          </mxGeometry>
        </mxCell>
        <mxCell id="AWg_gz1br5wKKJKmFN-r-57" style="edgeStyle=orthogonalEdgeStyle;rounded=0;orthogonalLoop=1;jettySize=auto;html=1;exitX=0.5;exitY=1;exitDx=0;exitDy=0;entryX=1;entryY=1;entryDx=0;entryDy=0;curved=1;" parent="1" source="AWg_gz1br5wKKJKmFN-r-23" target="AWg_gz1br5wKKJKmFN-r-6" edge="1">
          <mxGeometry relative="1" as="geometry">
            <Array as="points">
              <mxPoint x="795" y="460" />
              <mxPoint x="63" y="460" />
            </Array>
          </mxGeometry>
        </mxCell>
        <mxCell id="AWg_gz1br5wKKJKmFN-r-58" value="&lt;div&gt;&lt;font color=&quot;#FF0000&quot;&gt;&lt;b&gt;8&lt;/b&gt;&lt;/font&gt;&lt;/div&gt;&lt;div&gt;PTVIRG&lt;/div&gt;" style="edgeLabel;html=1;align=center;verticalAlign=middle;resizable=0;points=[];" parent="AWg_gz1br5wKKJKmFN-r-57" vertex="1" connectable="0">
          <mxGeometry x="-0.5234" y="3" relative="1" as="geometry">
            <mxPoint x="-224" y="-3" as="offset" />
          </mxGeometry>
        </mxCell>
        <mxCell id="AWg_gz1br5wKKJKmFN-r-49" style="edgeStyle=orthogonalEdgeStyle;rounded=0;orthogonalLoop=1;jettySize=auto;html=1;exitX=1;exitY=0.5;exitDx=0;exitDy=0;curved=1;" parent="1" source="AWg_gz1br5wKKJKmFN-r-27" target="AWg_gz1br5wKKJKmFN-r-22" edge="1">
          <mxGeometry relative="1" as="geometry">
            <Array as="points">
              <mxPoint x="570" y="340" />
              <mxPoint x="695" y="340" />
            </Array>
          </mxGeometry>
        </mxCell>
        <mxCell id="AWg_gz1br5wKKJKmFN-r-50" value="nbentier" style="edgeLabel;html=1;align=center;verticalAlign=middle;resizable=0;points=[];" parent="AWg_gz1br5wKKJKmFN-r-49" vertex="1" connectable="0">
          <mxGeometry x="0.5294" y="1" relative="1" as="geometry">
            <mxPoint x="-38" y="4" as="offset" />
          </mxGeometry>
        </mxCell>
        <mxCell id="AWg_gz1br5wKKJKmFN-r-47" style="edgeStyle=orthogonalEdgeStyle;rounded=0;orthogonalLoop=1;jettySize=auto;html=1;exitX=1;exitY=0.5;exitDx=0;exitDy=0;curved=1;" parent="1" source="AWg_gz1br5wKKJKmFN-r-28" target="AWg_gz1br5wKKJKmFN-r-27" edge="1">
          <mxGeometry relative="1" as="geometry" />
        </mxCell>
        <mxCell id="AWg_gz1br5wKKJKmFN-r-48" value="&lt;div&gt;&lt;b style=&quot;&quot;&gt;&lt;font color=&quot;#ff0000&quot;&gt;2&lt;/font&gt;&lt;/b&gt;&lt;/div&gt;&lt;div&gt;DEBUT&lt;/div&gt;" style="edgeLabel;html=1;align=center;verticalAlign=middle;resizable=0;points=[];" parent="AWg_gz1br5wKKJKmFN-r-47" vertex="1" connectable="0">
          <mxGeometry x="0.1833" y="-1" relative="1" as="geometry">
            <mxPoint x="-11" as="offset" />
          </mxGeometry>
        </mxCell>
        <mxCell id="AWg_gz1br5wKKJKmFN-r-28" value="3" style="ellipse;whiteSpace=wrap;html=1;aspect=fixed;" parent="1" vertex="1">
          <mxGeometry x="390" y="300" width="50" height="50" as="geometry" />
        </mxCell>
        <mxCell id="AWg_gz1br5wKKJKmFN-r-32" style="edgeStyle=orthogonalEdgeStyle;rounded=0;orthogonalLoop=1;jettySize=auto;html=1;exitX=0.5;exitY=1;exitDx=0;exitDy=0;" parent="1" source="AWg_gz1br5wKKJKmFN-r-9" target="AWg_gz1br5wKKJKmFN-r-9" edge="1">
          <mxGeometry relative="1" as="geometry" />
        </mxCell>
        <mxCell id="AWg_gz1br5wKKJKmFN-r-53" style="edgeStyle=orthogonalEdgeStyle;rounded=0;orthogonalLoop=1;jettySize=auto;html=1;exitX=0.5;exitY=0;exitDx=0;exitDy=0;entryX=0.74;entryY=0.9;entryDx=0;entryDy=0;entryPerimeter=0;curved=1;" parent="1" source="AWg_gz1br5wKKJKmFN-r-22" target="AWg_gz1br5wKKJKmFN-r-18" edge="1">
          <mxGeometry relative="1" as="geometry">
            <Array as="points">
              <mxPoint x="695" y="250" />
              <mxPoint x="562" y="250" />
            </Array>
          </mxGeometry>
        </mxCell>
        <mxCell id="AWg_gz1br5wKKJKmFN-r-54" value="&lt;div&gt;&lt;font color=&quot;#FF0000&quot;&gt;&lt;b&gt;7&lt;/b&gt;&lt;/font&gt;&lt;/div&gt;&lt;div&gt;ENFANT&lt;/div&gt;" style="edgeLabel;html=1;align=center;verticalAlign=middle;resizable=0;points=[];" parent="AWg_gz1br5wKKJKmFN-r-53" vertex="1" connectable="0">
          <mxGeometry x="0.1587" y="1" relative="1" as="geometry">
            <mxPoint x="47" y="-11" as="offset" />
          </mxGeometry>
        </mxCell>
        <mxCell id="AWg_gz1br5wKKJKmFN-r-93" style="edgeStyle=orthogonalEdgeStyle;curved=1;rounded=0;orthogonalLoop=1;jettySize=auto;html=1;exitX=1;exitY=0.5;exitDx=0;exitDy=0;" parent="1" source="AWg_gz1br5wKKJKmFN-r-31" target="AWg_gz1br5wKKJKmFN-r-28" edge="1">
          <mxGeometry relative="1" as="geometry" />
        </mxCell>
        <mxCell id="AWg_gz1br5wKKJKmFN-r-94" value="HEURES" style="edgeLabel;html=1;align=center;verticalAlign=middle;resizable=0;points=[];" parent="AWg_gz1br5wKKJKmFN-r-93" vertex="1" connectable="0">
          <mxGeometry x="0.2" relative="1" as="geometry">
            <mxPoint x="-12" as="offset" />
          </mxGeometry>
        </mxCell>
        <mxCell id="AWg_gz1br5wKKJKmFN-r-31" value="2" style="ellipse;whiteSpace=wrap;html=1;aspect=fixed;" parent="1" vertex="1">
          <mxGeometry x="270" y="300" width="50" height="50" as="geometry" />
        </mxCell>
        <mxCell id="AWg_gz1br5wKKJKmFN-r-67" value="" style="edgeStyle=orthogonalEdgeStyle;rounded=0;orthogonalLoop=1;jettySize=auto;html=1;exitX=0.5;exitY=0;exitDx=0;exitDy=0;curved=1;entryX=1;entryY=0.5;entryDx=0;entryDy=0;" parent="1" source="AWg_gz1br5wKKJKmFN-r-20" target="AWg_gz1br5wKKJKmFN-r-18" edge="1">
          <mxGeometry relative="1" as="geometry">
            <mxPoint x="985" y="280" as="sourcePoint" />
            <mxPoint x="540" y="305" as="targetPoint" />
            <Array as="points">
              <mxPoint x="965" y="190" />
              <mxPoint x="575" y="190" />
            </Array>
          </mxGeometry>
        </mxCell>
        <mxCell id="AWg_gz1br5wKKJKmFN-r-68" value="&lt;b style=&quot;&quot;&gt;&lt;font color=&quot;#ff0000&quot;&gt;7&lt;/font&gt;&lt;/b&gt;&lt;div&gt;ENFANT&lt;/div&gt;" style="edgeLabel;html=1;align=center;verticalAlign=middle;resizable=0;points=[];" parent="AWg_gz1br5wKKJKmFN-r-67" vertex="1" connectable="0">
          <mxGeometry x="-0.1062" y="2" relative="1" as="geometry">
            <mxPoint x="39" y="8" as="offset" />
          </mxGeometry>
        </mxCell>
        <mxCell id="AWg_gz1br5wKKJKmFN-r-22" value="6" style="ellipse;whiteSpace=wrap;html=1;aspect=fixed;" parent="1" vertex="1">
          <mxGeometry x="670" y="270" width="50" height="50" as="geometry" />
        </mxCell>
        <mxCell id="AWg_gz1br5wKKJKmFN-r-69" value="" style="edgeStyle=orthogonalEdgeStyle;rounded=0;orthogonalLoop=1;jettySize=auto;html=1;exitX=0.5;exitY=0;exitDx=0;exitDy=0;entryX=0;entryY=1;entryDx=0;entryDy=0;curved=1;" parent="1" source="AWg_gz1br5wKKJKmFN-r-28" target="AWg_gz1br5wKKJKmFN-r-18" edge="1">
          <mxGeometry relative="1" as="geometry">
            <mxPoint x="435" y="440" as="sourcePoint" />
            <mxPoint x="578" y="169" as="targetPoint" />
            <Array as="points">
              <mxPoint x="405" y="300" />
              <mxPoint x="405" y="250" />
              <mxPoint x="532" y="250" />
            </Array>
          </mxGeometry>
        </mxCell>
        <mxCell id="AWg_gz1br5wKKJKmFN-r-70" value="&lt;font color=&quot;#FF3333&quot;&gt;&lt;b&gt;4&lt;/b&gt;&lt;/font&gt;&lt;div&gt;FIN&lt;/div&gt;" style="edgeLabel;html=1;align=center;verticalAlign=middle;resizable=0;points=[];" parent="AWg_gz1br5wKKJKmFN-r-69" vertex="1" connectable="0">
          <mxGeometry x="-0.1548" relative="1" as="geometry">
            <mxPoint x="13" as="offset" />
          </mxGeometry>
        </mxCell>
        <mxCell id="AWg_gz1br5wKKJKmFN-r-27" value="5" style="ellipse;whiteSpace=wrap;html=1;aspect=fixed;" parent="1" vertex="1">
          <mxGeometry x="520" y="300" width="50" height="50" as="geometry" />
        </mxCell>
        <mxCell id="AWg_gz1br5wKKJKmFN-r-76" style="edgeStyle=orthogonalEdgeStyle;curved=1;rounded=0;orthogonalLoop=1;jettySize=auto;html=1;exitX=1;exitY=0;exitDx=0;exitDy=0;" parent="1" source="AWg_gz1br5wKKJKmFN-r-23" target="AWg_gz1br5wKKJKmFN-r-20" edge="1">
          <mxGeometry relative="1" as="geometry">
            <Array as="points">
              <mxPoint x="910" y="337" />
              <mxPoint x="910" y="337" />
            </Array>
          </mxGeometry>
        </mxCell>
        <mxCell id="AWg_gz1br5wKKJKmFN-r-77" value="&lt;div&gt;nbentier&lt;/div&gt;" style="edgeLabel;html=1;align=center;verticalAlign=middle;resizable=0;points=[];" parent="AWg_gz1br5wKKJKmFN-r-76" vertex="1" connectable="0">
          <mxGeometry x="-0.2255" y="1" relative="1" as="geometry">
            <mxPoint x="13" as="offset" />
          </mxGeometry>
        </mxCell>
        <mxCell id="AWg_gz1br5wKKJKmFN-r-83" style="edgeStyle=orthogonalEdgeStyle;curved=1;rounded=0;orthogonalLoop=1;jettySize=auto;html=1;exitX=0.5;exitY=0;exitDx=0;exitDy=0;entryX=1;entryY=0.5;entryDx=0;entryDy=0;" parent="1" source="AWg_gz1br5wKKJKmFN-r-23" target="AWg_gz1br5wKKJKmFN-r-19" edge="1">
          <mxGeometry relative="1" as="geometry">
            <Array as="points">
              <mxPoint x="810" y="330" />
              <mxPoint x="810" y="65" />
            </Array>
          </mxGeometry>
        </mxCell>
        <mxCell id="AWg_gz1br5wKKJKmFN-r-23" value="7" style="ellipse;whiteSpace=wrap;html=1;aspect=fixed;" parent="1" vertex="1">
          <mxGeometry x="770" y="330" width="50" height="50" as="geometry" />
        </mxCell>
        <mxCell id="AWg_gz1br5wKKJKmFN-r-79" style="edgeStyle=orthogonalEdgeStyle;curved=1;rounded=0;orthogonalLoop=1;jettySize=auto;html=1;exitX=0;exitY=0;exitDx=0;exitDy=0;entryX=0.36;entryY=1.06;entryDx=0;entryDy=0;entryPerimeter=0;" parent="1" source="AWg_gz1br5wKKJKmFN-r-18" target="AWg_gz1br5wKKJKmFN-r-19" edge="1">
          <mxGeometry relative="1" as="geometry" />
        </mxCell>
        <mxCell id="AWg_gz1br5wKKJKmFN-r-81" style="edgeStyle=orthogonalEdgeStyle;curved=1;rounded=0;orthogonalLoop=1;jettySize=auto;html=1;exitX=0;exitY=0.5;exitDx=0;exitDy=0;entryX=0.32;entryY=0;entryDx=0;entryDy=0;entryPerimeter=0;" parent="1" source="AWg_gz1br5wKKJKmFN-r-19" target="AWg_gz1br5wKKJKmFN-r-9" edge="1">
          <mxGeometry relative="1" as="geometry" />
        </mxCell>
        <mxCell id="AWg_gz1br5wKKJKmFN-r-82" value="&lt;div&gt;&lt;b style=&quot;&quot;&gt;&lt;font color=&quot;#ff0000&quot;&gt;1&lt;/font&gt;&lt;/b&gt;&lt;/div&gt;&lt;div&gt;ident&lt;/div&gt;" style="edgeLabel;html=1;align=center;verticalAlign=middle;resizable=0;points=[];" parent="AWg_gz1br5wKKJKmFN-r-81" vertex="1" connectable="0">
          <mxGeometry x="-0.2505" y="48" relative="1" as="geometry">
            <mxPoint x="13" y="-23" as="offset" />
          </mxGeometry>
        </mxCell>
        <mxCell id="AWg_gz1br5wKKJKmFN-r-85" value="+" style="text;html=1;align=center;verticalAlign=middle;resizable=0;points=[];autosize=1;strokeColor=none;fillColor=none;fontSize=32;fontStyle=1" parent="1" vertex="1">
          <mxGeometry x="40" y="490" width="40" height="50" as="geometry" />
        </mxCell>
        <mxCell id="AWg_gz1br5wKKJKmFN-r-88" value="" style="edgeStyle=none;orthogonalLoop=1;jettySize=auto;html=1;rounded=0;curved=1;" parent="1" edge="1">
          <mxGeometry width="100" relative="1" as="geometry">
            <mxPoint x="-20" y="325" as="sourcePoint" />
            <mxPoint x="20" y="325" as="targetPoint" />
            <Array as="points" />
          </mxGeometry>
        </mxCell>
        <mxCell id="qwO_LtmiHnMAjNAjJfmR-3" value="&lt;div&gt;&lt;font color=&quot;#FF0000&quot;&gt;&lt;b&gt;8&lt;/b&gt;&lt;/font&gt;&lt;/div&gt;&lt;div&gt;PTVIRG&lt;/div&gt;" style="edgeLabel;html=1;align=center;verticalAlign=middle;resizable=0;points=[];" parent="1" vertex="1" connectable="0">
          <mxGeometry x="110" y="170" as="geometry" />
        </mxCell>
        <mxCell id="qwO_LtmiHnMAjNAjJfmR-4" value="&lt;div&gt;&lt;font color=&quot;#ff0000&quot;&gt;&lt;b&gt;10&lt;/b&gt;&lt;/font&gt;&lt;/div&gt;&lt;div&gt;VIRG&lt;/div&gt;" style="edgeLabel;html=1;align=center;verticalAlign=middle;resizable=0;points=[];" parent="1" vertex="1" connectable="0">
          <mxGeometry x="730" y="90" as="geometry">
            <mxPoint x="-4" y="-6" as="offset" />
          </mxGeometry>
        </mxCell>
        <mxCell id="qwO_LtmiHnMAjNAjJfmR-6" value="&lt;div&gt;&lt;font color=&quot;#ff0000&quot;&gt;&lt;b&gt;10&lt;/b&gt;&lt;/font&gt;&lt;/div&gt;&lt;div&gt;VIRG&lt;/div&gt;" style="edgeLabel;html=1;align=center;verticalAlign=middle;resizable=0;points=[];" parent="1" vertex="1" connectable="0">
          <mxGeometry x="520" y="110" as="geometry">
            <mxPoint x="-4" y="-6" as="offset" />
          </mxGeometry>
        </mxCell>
      </root>
    </mxGraphModel>
  </diagram>
</mxfile>
